PathFileType	4	(X/Y/Z)	C:\Users\italobelli\Desktop\GitHub\PTbot_officialCBL\Personal_Results\ABD03_noisy2.trc
DataRate	CameraRate	NumFrames	NumMarkers	Units	OrigDataRate	OrigDataStartFrame	OrigNumFrames
106.533333	106.533333	51	9	m	106.533333	301	800
Frame#	Time		gu		centelbow		EpL		centpxt8		centijc7		ij		ts		aa		ai
			X1	Y1	Z1	X2	Y2	Z2	X3	Y3	Z3	X4	Y4	Z4	X5	Y5	Z5	X6	Y6	Z6	X7	Y7	Z7	X8	Y8	Z8	X9	Y9	Z9

301	2.816	-0.10919	0.069108	0.10521	-0.12267	0.27091	0.25342	-0.14094	0.28189	0.22909	-0.046816	-0.15316	-0.008669	-0.046816	0.031938	-0.008669	0	0	0	-0.13585	-0.018092	0.043785	-0.15402	0.086365	0.098699	-0.14302	-0.066847	0.14619
302	2.8254	-0.10917	0.069066	0.10505	-0.12105	0.27151	0.25237	-0.13939	0.28245	0.22809	-0.046816	-0.15316	-0.008669	-0.046816	0.031938	-0.008669	0	0	0	-0.13595	-0.018152	0.04392	-0.15399	0.086417	0.098665	-0.14305	-0.06672	0.14642
303	2.8348	-0.10915	0.069024	0.10489	-0.11943	0.27208	0.25133	-0.13785	0.28298	0.22709	-0.046816	-0.15316	-0.008669	-0.046816	0.031938	-0.008669	0	0	0	-0.13606	-0.01821	0.044053	-0.15396	0.086469	0.098631	-0.14309	-0.066596	0.14664
304	2.8442	-0.10913	0.06898	0.10474	-0.11782	0.27264	0.25029	-0.13632	0.2835	0.2261	-0.046816	-0.15316	-0.008669	-0.046816	0.031938	-0.008669	0	0	0	-0.13616	-0.018268	0.044186	-0.15392	0.08652	0.098599	-0.14312	-0.066473	0.14685
305	2.8536	-0.10911	0.068936	0.10459	-0.11622	0.27317	0.24927	-0.13479	0.284	0.22512	-0.046816	-0.15316	-0.008669	-0.046816	0.031938	-0.008669	0	0	0	-0.13627	-0.018323	0.044317	-0.15389	0.086569	0.098567	-0.14315	-0.066353	0.14706
306	2.863	-0.10909	0.068891	0.10445	-0.11464	0.27368	0.24825	-0.13327	0.28448	0.22415	-0.046816	-0.15316	-0.008669	-0.046816	0.031938	-0.008669	0	0	0	-0.13637	-0.018377	0.044446	-0.15385	0.086618	0.098537	-0.14318	-0.066235	0.14727
307	2.8723	-0.10907	0.068845	0.1043	-0.11307	0.27417	0.24724	-0.13177	0.28494	0.22319	-0.046816	-0.15316	-0.008669	-0.046816	0.031938	-0.008669	0	0	0	-0.13647	-0.018429	0.044574	-0.15382	0.086666	0.098508	-0.14321	-0.066118	0.14748
308	2.8817	-0.10905	0.068798	0.10416	-0.11151	0.27463	0.24625	-0.13028	0.28538	0.22224	-0.046816	-0.15316	-0.008669	-0.046816	0.031938	-0.008669	0	0	0	-0.13657	-0.018479	0.0447	-0.15378	0.086713	0.098481	-0.14323	-0.066005	0.14768
309	2.8911	-0.10903	0.06875	0.10403	-0.10997	0.27507	0.24526	-0.12881	0.2858	0.2213	-0.046816	-0.15316	-0.008669	-0.046816	0.031938	-0.008669	0	0	0	-0.13668	-0.018528	0.044824	-0.15375	0.08676	0.098454	-0.14325	-0.065893	0.14787
310	2.9005	-0.10902	0.068702	0.1039	-0.10845	0.27549	0.24429	-0.12735	0.2862	0.22037	-0.046816	-0.15316	-0.008669	-0.046816	0.031938	-0.008669	0	0	0	-0.13678	-0.018574	0.044947	-0.15371	0.086805	0.098428	-0.14328	-0.065783	0.14806
311	2.9099	-0.109	0.068653	0.10377	-0.10696	0.27588	0.24332	-0.12592	0.28657	0.21946	-0.046816	-0.15316	-0.008669	-0.046816	0.031938	-0.008669	0	0	0	-0.13688	-0.018619	0.045068	-0.15367	0.086849	0.098404	-0.1433	-0.065676	0.14825
312	2.9193	-0.10898	0.068603	0.10365	-0.10548	0.27625	0.24237	-0.1245	0.28692	0.21855	-0.046816	-0.15316	-0.008669	-0.046816	0.031938	-0.008669	0	0	0	-0.13698	-0.018661	0.045188	-0.15364	0.086893	0.09838	-0.14331	-0.065571	0.14844
313	2.9287	-0.10896	0.068553	0.10353	-0.10404	0.2766	0.24143	-0.12312	0.28725	0.21766	-0.046816	-0.15316	-0.008669	-0.046816	0.031938	-0.008669	0	0	0	-0.13708	-0.018702	0.045305	-0.1536	0.086936	0.098358	-0.14333	-0.065469	0.14862
314	2.938	-0.10894	0.068502	0.10341	-0.10262	0.27692	0.2405	-0.12175	0.28756	0.21678	-0.046816	-0.15316	-0.008669	-0.046816	0.031938	-0.008669	0	0	0	-0.13719	-0.01874	0.04542	-0.15357	0.086977	0.098336	-0.14334	-0.065368	0.14879
315	2.9474	-0.10892	0.06845	0.1033	-0.10123	0.27721	0.23959	-0.12042	0.28785	0.21592	-0.046816	-0.15316	-0.008669	-0.046816	0.031938	-0.008669	0	0	0	-0.13729	-0.018776	0.045534	-0.15353	0.087018	0.098316	-0.14336	-0.06527	0.14896
316	2.9568	-0.10891	0.068398	0.10319	-0.099868	0.27748	0.23869	-0.11912	0.2881	0.21507	-0.046816	-0.15316	-0.008669	-0.046816	0.031938	-0.008669	0	0	0	-0.13739	-0.01881	0.045645	-0.15349	0.087059	0.098297	-0.14337	-0.065175	0.14913
317	2.9662	-0.10889	0.068345	0.10309	-0.098544	0.27772	0.23781	-0.11784	0.28834	0.21423	-0.046816	-0.15316	-0.008669	-0.046816	0.031938	-0.008669	0	0	0	-0.13749	-0.018842	0.045755	-0.15346	0.087098	0.098278	-0.14338	-0.065082	0.14929
318	2.9756	-0.10887	0.068292	0.103	-0.097256	0.27793	0.23693	-0.1166	0.28855	0.2134	-0.046816	-0.15316	-0.008669	-0.046816	0.031938	-0.008669	0	0	0	-0.13759	-0.018871	0.045862	-0.15342	0.087137	0.098261	-0.14338	-0.064992	0.14944
319	2.985	-0.10886	0.068239	0.10291	-0.096005	0.27812	0.23608	-0.1154	0.28874	0.21259	-0.046816	-0.15316	-0.008669	-0.046816	0.031938	-0.008669	0	0	0	-0.13769	-0.018898	0.045967	-0.15339	0.087174	0.098244	-0.14339	-0.064904	0.1496
320	2.9944	-0.10884	0.068185	0.10282	-0.094795	0.27828	0.23524	-0.11423	0.2889	0.2118	-0.046816	-0.15316	-0.008669	-0.046816	0.031938	-0.008669	0	0	0	-0.13779	-0.018923	0.046069	-0.15335	0.087211	0.098229	-0.14339	-0.064818	0.14974
321	3.0038	-0.10882	0.06813	0.10274	-0.093621	0.27841	0.23441	-0.1131	0.28903	0.21102	-0.046816	-0.15316	-0.008669	-0.046816	0.031938	-0.008669	0	0	0	-0.13789	-0.018945	0.04617	-0.15332	0.087247	0.098214	-0.14339	-0.064735	0.14989
322	3.0131	-0.10881	0.068073	0.10266	-0.092448	0.27853	0.23359	-0.11197	0.28916	0.21025	-0.046816	-0.15316	-0.008669	-0.046816	0.031938	-0.008669	0	0	0	-0.13799	-0.018966	0.04627	-0.15328	0.087283	0.098202	-0.14339	-0.064653	0.15003
323	3.0225	-0.10879	0.068013	0.10258	-0.091265	0.27864	0.23278	-0.11082	0.28927	0.20948	-0.046816	-0.15316	-0.008669	-0.046816	0.031938	-0.008669	0	0	0	-0.13809	-0.018988	0.04637	-0.15324	0.087319	0.098192	-0.14338	-0.064572	0.15017
324	3.0319	-0.10877	0.06795	0.10251	-0.090074	0.27875	0.23197	-0.10967	0.28939	0.20871	-0.046816	-0.15316	-0.008669	-0.046816	0.031938	-0.008669	0	0	0	-0.13819	-0.01901	0.046469	-0.1532	0.087355	0.098184	-0.14338	-0.064491	0.15031
325	3.0413	-0.10876	0.067884	0.10243	-0.088877	0.27884	0.23117	-0.10852	0.28949	0.20795	-0.046816	-0.15316	-0.008669	-0.046816	0.031938	-0.008669	0	0	0	-0.13829	-0.019031	0.046568	-0.15315	0.087391	0.098178	-0.14336	-0.064411	0.15045
326	3.0507	-0.10874	0.067816	0.10236	-0.087673	0.27893	0.23037	-0.10735	0.28959	0.2072	-0.046816	-0.15316	-0.008669	-0.046816	0.031938	-0.008669	0	0	0	-0.13839	-0.019053	0.046667	-0.1531	0.087426	0.098174	-0.14335	-0.064331	0.15059
327	3.0601	-0.10872	0.067745	0.10229	-0.086464	0.27902	0.22958	-0.10618	0.28968	0.20645	-0.046816	-0.15316	-0.008669	-0.046816	0.031938	-0.008669	0	0	0	-0.13849	-0.019074	0.046765	-0.15305	0.087461	0.098172	-0.14334	-0.064252	0.15073
328	3.0695	-0.1087	0.067673	0.10221	-0.085251	0.27909	0.22879	-0.105	0.28977	0.2057	-0.046816	-0.15316	-0.008669	-0.046816	0.031938	-0.008669	0	0	0	-0.13859	-0.019095	0.046863	-0.153	0.087497	0.098172	-0.14332	-0.064174	0.15087
329	3.0788	-0.10868	0.067598	0.10214	-0.084034	0.27916	0.22801	-0.10383	0.28985	0.20496	-0.046816	-0.15316	-0.008669	-0.046816	0.031938	-0.008669	0	0	0	-0.13869	-0.019116	0.04696	-0.15294	0.087532	0.098173	-0.1433	-0.064097	0.15101
330	3.0882	-0.10867	0.067522	0.10208	-0.082815	0.27923	0.22724	-0.10264	0.28993	0.20423	-0.046816	-0.15316	-0.008669	-0.046816	0.031938	-0.008669	0	0	0	-0.13879	-0.019137	0.047056	-0.15289	0.087567	0.098176	-0.14328	-0.06402	0.15115
331	3.0976	-0.10865	0.067443	0.10201	-0.081595	0.27929	0.22647	-0.10146	0.29	0.2035	-0.046816	-0.15316	-0.008669	-0.046816	0.031938	-0.008669	0	0	0	-0.13889	-0.019158	0.047152	-0.15283	0.087601	0.09818	-0.14325	-0.063944	0.15128
332	3.107	-0.10863	0.067364	0.10194	-0.080375	0.27934	0.22571	-0.10027	0.29007	0.20278	-0.046816	-0.15316	-0.008669	-0.046816	0.031938	-0.008669	0	0	0	-0.13899	-0.019179	0.047247	-0.15277	0.087636	0.098185	-0.14323	-0.063868	0.15142
333	3.1164	-0.10861	0.067282	0.10188	-0.079155	0.27939	0.22496	-0.09909	0.29013	0.20206	-0.046816	-0.15316	-0.008669	-0.046816	0.031938	-0.008669	0	0	0	-0.13909	-0.019199	0.047341	-0.15271	0.087671	0.098192	-0.1432	-0.063793	0.15156
334	3.1258	-0.10859	0.0672	0.10181	-0.077936	0.27944	0.22421	-0.097906	0.29019	0.20135	-0.046816	-0.15316	-0.008669	-0.046816	0.031938	-0.008669	0	0	0	-0.13919	-0.019219	0.047434	-0.15265	0.087705	0.0982	-0.14317	-0.063719	0.15169
335	3.1352	-0.10857	0.067116	0.10175	-0.07672	0.27948	0.22347	-0.096723	0.29024	0.20064	-0.046816	-0.15316	-0.008669	-0.046816	0.031938	-0.008669	0	0	0	-0.13929	-0.019239	0.047526	-0.15258	0.087739	0.098209	-0.14314	-0.063645	0.15182
336	3.1446	-0.10855	0.067032	0.10169	-0.075508	0.27952	0.22273	-0.095544	0.2903	0.19994	-0.046816	-0.15316	-0.008669	-0.046816	0.031938	-0.008669	0	0	0	-0.13939	-0.019259	0.047617	-0.15252	0.087773	0.098219	-0.14311	-0.063572	0.15195
337	3.1539	-0.10854	0.066947	0.10163	-0.074299	0.27955	0.222	-0.094368	0.29034	0.19925	-0.046816	-0.15316	-0.008669	-0.046816	0.031938	-0.008669	0	0	0	-0.13949	-0.019279	0.047707	-0.15245	0.087807	0.09823	-0.14308	-0.063499	0.15208
338	3.1633	-0.10852	0.066861	0.10157	-0.073096	0.27958	0.22128	-0.093197	0.29039	0.19856	-0.046816	-0.15316	-0.008669	-0.046816	0.031938	-0.008669	0	0	0	-0.13959	-0.019298	0.047796	-0.15239	0.08784	0.098241	-0.14305	-0.063428	0.15221
339	3.1727	-0.1085	0.066774	0.10151	-0.071899	0.27961	0.22057	-0.092031	0.29043	0.19788	-0.046816	-0.15316	-0.008669	-0.046816	0.031938	-0.008669	0	0	0	-0.13969	-0.019317	0.047883	-0.15232	0.087874	0.098253	-0.14301	-0.063356	0.15234
340	3.1821	-0.10848	0.066687	0.10145	-0.07071	0.27964	0.21986	-0.090872	0.29048	0.19721	-0.046816	-0.15316	-0.008669	-0.046816	0.031938	-0.008669	0	0	0	-0.13979	-0.019336	0.047969	-0.15226	0.087907	0.098266	-0.14298	-0.063286	0.15247
341	3.1915	-0.10846	0.0666	0.10139	-0.069529	0.27966	0.21916	-0.08972	0.29052	0.19654	-0.046816	-0.15316	-0.008669	-0.046816	0.031938	-0.008669	0	0	0	-0.13989	-0.019355	0.048054	-0.15219	0.08794	0.098279	-0.14294	-0.063216	0.15259
342	3.2009	-0.10844	0.066513	0.10134	-0.068356	0.27968	0.21846	-0.088577	0.29055	0.19588	-0.046816	-0.15316	-0.008669	-0.046816	0.031938	-0.008669	0	0	0	-0.13998	-0.019373	0.048138	-0.15212	0.087973	0.098292	-0.14291	-0.063147	0.15271
343	3.2103	-0.10843	0.066427	0.10128	-0.067194	0.27971	0.21778	-0.087443	0.29059	0.19522	-0.046816	-0.15316	-0.008669	-0.046816	0.031938	-0.008669	0	0	0	-0.14008	-0.019391	0.048219	-0.15205	0.088006	0.098306	-0.14287	-0.063078	0.15283
344	3.2196	-0.10841	0.06634	0.10123	-0.066043	0.27972	0.2171	-0.086319	0.29063	0.19457	-0.046816	-0.15316	-0.008669	-0.046816	0.031938	-0.008669	0	0	0	-0.14018	-0.019409	0.0483	-0.15199	0.088038	0.09832	-0.14283	-0.06301	0.15295
345	3.229	-0.10839	0.066254	0.10117	-0.064904	0.27974	0.21643	-0.085206	0.29066	0.19393	-0.046816	-0.15316	-0.008669	-0.046816	0.031938	-0.008669	0	0	0	-0.14028	-0.019426	0.048378	-0.15192	0.088071	0.098333	-0.1428	-0.062943	0.15307
346	3.2384	-0.10838	0.066168	0.10112	-0.063777	0.27976	0.21577	-0.084106	0.2907	0.1933	-0.046816	-0.15316	-0.008669	-0.046816	0.031938	-0.008669	0	0	0	-0.14037	-0.019443	0.048455	-0.15186	0.088103	0.098347	-0.14276	-0.062876	0.15319
347	3.2478	-0.10836	0.066083	0.10107	-0.062665	0.27978	0.21511	-0.083018	0.29073	0.19267	-0.046816	-0.15316	-0.008669	-0.046816	0.031938	-0.008669	0	0	0	-0.14047	-0.019459	0.048531	-0.15179	0.088134	0.098361	-0.14272	-0.06281	0.1533
348	3.2572	-0.10834	0.065999	0.10101	-0.061567	0.2798	0.21447	-0.081945	0.29076	0.19205	-0.046816	-0.15316	-0.008669	-0.046816	0.031938	-0.008669	0	0	0	-0.14057	-0.019476	0.048604	-0.15173	0.088166	0.098374	-0.14269	-0.062744	0.15341
349	3.2666	-0.10833	0.065917	0.10096	-0.060485	0.27982	0.21383	-0.080886	0.2908	0.19143	-0.046816	-0.15316	-0.008669	-0.046816	0.031938	-0.008669	0	0	0	-0.14066	-0.019491	0.048676	-0.15166	0.088197	0.098387	-0.14265	-0.062679	0.15352
350	3.276	-0.10831	0.065835	0.10091	-0.05942	0.27984	0.2132	-0.079843	0.29083	0.19083	-0.046816	-0.15316	-0.008669	-0.046816	0.031938	-0.008669	0	0	0	-0.14076	-0.019507	0.048745	-0.1516	0.088229	0.098399	-0.14262	-0.062615	0.15363
351	3.2854	-0.1083	0.065755	0.10086	-0.058373	0.27986	0.21258	-0.078818	0.29087	0.19023	-0.046816	-0.15316	-0.008669	-0.046816	0.031938	-0.008669	0	0	0	-0.14085	-0.019522	0.048813	-0.15154	0.088259	0.098411	-0.14258	-0.062551	0.15373
